# xmcd CD database file
#
# Track frame offsets:
#	150
#	20117
#	39402
#	55542
#
# Disc length: 995 seconds
#
# Revision: 0
# Processed by: cddbd v1.5.1PL0 Copyright (c) Steve Scherf et al.
# Submitted via: CDex 1.51
#
DISCID=2903e104
DTITLE=L'luvia - 愛の法律
DYEAR=1999
DGENRE=JPop
TTITLE0=愛の法律
TTITLE1=myself
TTITLE2=Feel so good
TTITLE3=ミラクルウインター
EXTD=YEAR: 1999
EXTT0=
EXTT1=
EXTT2=
EXTT3=
PLAYORDER=
